<?xml version="1.0" encoding="UTF-8"?>
<svg xmlns="http://www.w3.org/2000/svg" width="150" height="37" viewBox="0 0 150 37" fill="none">
  <g clip-path="url(#clip0_284_235)">
    <path d="M147.913 7.89484C148.152 7.89484 148.39 7.95423 148.629 8.073C148.867 8.19178 149.046 8.36995 149.165 8.60751C149.284 8.84506 149.344 9.08262 149.344 9.37956C149.344 9.61712 149.284 9.91407 149.165 10.1516C149.046 10.3892 148.867 10.5673 148.629 10.6861C148.39 10.8049 148.152 10.8643 147.853 10.8643C147.615 10.8643 147.317 10.8049 147.078 10.6861C146.84 10.5673 146.661 10.3892 146.542 10.1516C146.422 9.91407 146.363 9.67651 146.363 9.37956C146.363 9.14201 146.422 8.84506 146.542 8.60751C146.661 8.36995 146.84 8.19178 147.078 8.073C147.436 7.95423 147.675 7.89484 147.913 7.89484ZM147.913 8.13239C147.675 8.13239 147.496 8.19178 147.317 8.31056C147.138 8.42934 146.959 8.54812 146.84 8.78567C146.721 8.96384 146.661 9.2014 146.661 9.43895C146.661 9.67651 146.721 9.85468 146.84 10.0328C146.959 10.211 147.078 10.3892 147.317 10.508C147.496 10.6267 147.734 10.6861 147.913 10.6861C148.092 10.6861 148.33 10.6267 148.509 10.508C148.688 10.3892 148.867 10.2704 148.986 10.0328C149.106 9.85468 149.165 9.61712 149.165 9.43895C149.165 9.2014 149.106 9.02323 148.986 8.78567C148.867 8.60751 148.748 8.42934 148.509 8.31056C148.33 8.19178 148.152 8.13239 147.913 8.13239ZM147.257 10.211V8.60751H147.794C147.973 8.60751 148.092 8.60751 148.211 8.6669C148.271 8.72628 148.39 8.72628 148.39 8.84506C148.45 8.90445 148.45 9.02323 148.45 9.08262C148.45 9.2014 148.39 9.32018 148.33 9.37956C148.271 9.43895 148.152 9.49834 147.973 9.49834C148.032 9.49834 148.092 9.55773 148.092 9.55773C148.152 9.61712 148.211 9.7359 148.33 9.85468L148.509 10.1516H148.211L148.092 9.91407C147.973 9.7359 147.913 9.61712 147.794 9.55773C147.734 9.49834 147.675 9.49834 147.615 9.49834H147.436V10.211H147.257ZM147.496 9.32018H147.794C147.973 9.32018 148.032 9.32018 148.092 9.26079C148.152 9.2014 148.152 9.14201 148.152 9.08262C148.152 9.02323 148.152 8.96384 148.092 8.96384C148.092 8.90445 148.032 8.90445 147.973 8.90445C147.913 8.90445 147.853 8.90445 147.734 8.90445H147.436V9.32018H147.496Z" fill="#474B55"></path>
    <path d="M139.029 8.60752V14.1901H137.36V17.0408H139.029V24.405C139.029 26.543 140.4 28.681 143.68 28.681H145.886V25.5334H144.455C143.501 25.5334 143.084 25.0583 143.084 24.1675V16.9814H145.886V14.1307H143.084V8.54813H139.029V8.60752Z" fill="#474B55"></path>
    <path d="M124.123 18.3473C124.123 21.0792 125.912 22.267 128.774 22.5046L131.278 22.7421C132.53 22.8609 132.947 23.3954 132.947 24.1081C132.947 25.2365 131.516 25.6522 130.145 25.6522C128.893 25.6522 126.508 25.474 125.196 24.2269L123.825 27.4339C125.852 28.7998 127.521 28.7998 130.085 28.7998C133.842 28.7998 136.882 27.1963 136.882 23.9299C136.882 21.4356 135.273 19.8321 132.113 19.5351L129.608 19.2976C128.177 19.1788 127.939 18.5255 127.939 17.991C127.939 17.2783 128.595 16.5657 130.205 16.5657C131.576 16.5657 133.365 16.8032 134.319 17.5753L135.75 14.784C133.901 13.7744 132.768 13.5368 130.264 13.5368C127.044 13.5962 124.123 15.2591 124.123 18.3473Z" fill="#474B55"></path>
    <path d="M123.467 13.5962C121.738 13.5962 120.188 14.3683 119.472 15.1997V13.7744H115.597V28.681H119.592V19.6539C119.592 17.7534 120.903 16.8626 122.155 16.8626C122.573 16.8626 123.05 16.922 123.407 16.9814L124.302 13.5962C124.183 13.5962 124.004 13.5962 123.884 13.5962C123.765 13.5962 123.646 13.5962 123.467 13.5962Z" fill="#474B55"></path>
    <path d="M108.62 28.681H112.615V13.7744H108.62V28.681ZM108.561 9.32017H112.615V6.29132H108.561V9.32017Z" fill="#474B55"></path>
    <path d="M104.506 6.23194C101.227 6.23194 99.8557 8.36994 99.8557 10.508V14.1307H98.2458C98.2458 15.1997 98.2458 16.1499 98.2458 16.8032V16.9814H99.8557V28.6216H103.851V16.9814H106.772V14.1307H103.851V10.6861C103.851 9.85467 104.268 9.32017 105.222 9.32017H106.772V6.17255H104.506V6.23194Z" fill="#474B55"></path>
    <path d="M86.4998 19.1194C86.4998 16.5063 87.9308 15.0809 90.5542 15.0809C93.1777 15.0809 94.4895 16.4469 94.5491 19.1194V28.681H96.4571V18.8224C96.4571 17.1595 95.9205 15.7936 94.9068 14.8434C93.8932 13.8931 92.4622 13.3586 90.7331 13.3586C89.004 13.3586 87.573 13.8931 86.4998 14.9621V6.05377C86.2017 6.05377 85.0092 6.05377 84.5918 6.05377V28.5029V28.681H86.4998V19.1194Z" fill="#474B55"></path>
    <path d="M82.0875 27.0182H81.3124C79.8218 27.0182 79.2256 26.3055 79.1659 24.8208V15.4967H82.5645V14.0713H79.1659V7.53851H77.2579V14.0713H75.2307V15.4967H77.2579V24.8208C77.2579 25.9491 77.5561 26.8994 78.2119 27.612C78.8678 28.3247 79.8218 28.7404 81.0143 28.681H82.0279V27.0182H82.0875Z" fill="#474B55"></path>
    <path d="M71.2957 6.11316H73.2036V28.7404H71.2957V6.11316Z" fill="#474B55"></path>
    <path d="M66.0487 28.681H67.9567V27.7308V18.2879C67.9567 16.7438 67.4797 15.4966 66.4661 14.6652C65.4525 13.8338 63.9619 13.418 61.9346 13.418C59.4304 13.418 57.8205 13.9525 56.5088 15.6748L56.3895 15.7936L57.8205 16.9814L57.9398 16.8626C58.8938 15.6154 59.8478 15.1403 61.9346 15.1403C64.9755 15.1997 65.9891 16.2687 65.9891 18.4661V20.0102H61.3384C59.6689 20.0102 58.3571 20.3666 57.4032 21.1386C56.4492 21.8513 55.9722 22.9797 55.9722 24.3456C55.9722 25.474 56.3299 26.7212 57.105 27.4339C58.1187 28.4435 59.3708 28.7998 61.6365 28.7998C63.6041 28.7998 64.8562 28.4435 66.0487 27.4339V28.681ZM65.214 26.0085C64.2004 26.9588 62.9482 27.0775 61.5769 27.0775C58.8341 27.0775 57.8205 26.0679 57.8205 24.2862C57.8205 22.4452 58.9534 21.6137 61.4576 21.5543H65.9295V23.2172C66.0487 24.5238 65.7506 25.5334 65.214 26.0085Z" fill="#474B55"></path>
    <path d="M52.335 25.4146C51.0829 26.543 50.0693 27.0181 48.3998 27.0181C45.2993 27.0181 43.749 25.1771 43.6894 21.6137H54.1237V20.7229C54.1237 18.4661 53.5871 16.625 52.5139 15.3779C51.4406 14.1307 49.8904 13.418 47.9824 13.418C46.0744 13.418 44.5242 14.1307 43.4509 15.4373C42.3777 16.7438 41.8411 18.6443 41.8411 21.0792C41.8411 23.5142 42.3777 25.474 43.5106 26.7806C44.6434 28.0871 46.2533 28.7404 48.3998 28.7404C50.6655 28.7404 52.0965 28.0871 53.5275 26.84L52.335 25.4146ZM44.226 17.4565C44.8223 15.9718 46.2533 15.1403 47.9824 15.1403C49.6519 15.1403 51.0829 16.0312 51.7387 17.5159C52.0965 18.3473 52.1561 18.7631 52.2157 20.0102H43.749C43.8087 18.7631 43.9279 18.4067 44.226 17.4565Z" fill="#474B55"></path>
    <path d="M29.618 28.681V19.1788C29.618 16.5657 31.049 15.1403 33.6725 15.1403C36.2959 15.1403 37.6077 16.5063 37.6077 19.1788V28.681H39.5157V18.8818C39.5157 17.2189 38.9791 15.853 37.9654 14.9028C36.9518 13.9525 35.5208 13.418 33.7917 13.418C32.0626 13.418 30.6316 13.9525 29.5584 15.0215V6.05377H27.6504V28.681H29.618Z" fill="#474B55"></path>
    <path d="M20.8711 25.8994C22.3417 20.2284 22.172 16.7896 19.6833 12.1441C16.4593 6.17144 7.35301 4.3012 2.88468 1.76733C1.30097 0.862377 0.791924 0.138413 0.395996 0.379734C1.81002 2.3103 3.05437 3.39625 4.69464 4.84418C6.73084 6.35243 16.4028 13.7731 20.8711 25.8994Z" fill="#82C341"></path>
    <path d="M21.1538 36.5176C22.0588 33.5011 20.9842 30.3035 20.4185 28.6746C19.0045 24.6325 14.6493 14.135 4.63799 4.72351C4.63799 4.72351 4.69455 4.72351 4.75112 4.78384C3.05428 3.33591 1.80994 2.24997 0.452473 0.319397C0.452473 0.319397 0.395912 0.319397 0.395912 0.379727C0.113106 1.16402 1.41401 2.06898 2.26243 5.5078C3.84614 12.1441 1.8665 18.8408 14.5927 24.9945C19.9095 27.649 20.6448 31.5705 19.7964 34.5267C20.1357 34.8283 20.4185 35.2506 20.7013 35.6126C20.871 35.9143 21.0407 36.2159 21.1538 36.5176Z" fill="#82C341"></path>
  </g>
  <defs>
    <clipPath id="clip0_284_235">
      <rect width="150" height="36.3971" fill="white" transform="translate(0 0.301483)"></rect>
    </clipPath>
  </defs>
</svg>
