<svg xmlns="http://www.w3.org/2000/svg" version="1.0" preserveAspectRatio="xMidYMid meet" viewBox="500.39 568.71 1597.61 833.17">

<g transform="translate(0.000000,1920.000000) scale(0.100000,-0.100000)" fill="#000000" stroke="none">
<path d="M8270 13509 c-338 -3 -635 -9 -660 -12 -25 -4 -99 -11 -165 -17 -579 -50 -1024 -199 -1402 -468 -228 -162 -387 -324 -561 -569 -294 -417 -417 -814 -463 -1503 -14 -215 -21 -2414 -9 -2940 13 -575 41 -778 150 -1094 55 -158 140 -334 237 -491 104 -167 166 -249 283 -377 226 -246 448 -414 725 -548 350 -170 618 -236 1150 -286 140 -13 385 -17 1385 -21 1672 -7 1928 3 2455 97 518 93 1056 410 1378 810 180 223 315 468 415 750 95 267 135 470 163 825 16 199 23 2157 10 2795 -11 563 -25 774 -67 1015 -86 491 -322 952 -657 1287 -242 240 -470 392 -781 518 -336 136 -671 196 -1236 220 -299 12 -1515 17 -2350 9z m-975 -2749 c213 -43 399 -137 583 -292 216 -184 381 -468 439 -755 13 -66 17 -133 16 -268 0 -159 -4 -191 -26 -277 -93 -354 -343 -661 -677 -832 -187 -96 -335 -131 -550 -130 -172 1 -260 14 -383 56 -328 111 -611 353 -765 656 -91 178 -130 326 -139 528 -18 396 165 796 478 1049 310 250 656 340 1024 265z m2225 -25 c0 -17 18 -63 220 -570 82 -203 193 -476 248 -605 79 -186 247 -601 304 -749 8 -23 9 -24 22 -5 18 26 84 189 474 1174 67 168 150 377 185 465 35 88 76 193 91 233 l28 72 254 0 254 0 10 -22 c5 -13 52 -133 106 -268 53 -135 129 -326 170 -425 40 -99 108 -270 152 -380 44 -110 167 -418 274 -685 107 -267 214 -534 237 -595 24 -60 49 -120 57 -132 l14 -23 -279 0 -279 0 -70 178 c-38 97 -74 193 -81 213 -7 23 -20 39 -33 43 -12 3 -255 4 -541 3 l-519 -2 -49 -125 c-27 -69 -63 -167 -81 -217 l-31 -93 -337 0 -337 0 -16 38 c-32 74 -130 328 -139 358 -5 20 -17 34 -30 38 -13 3 -255 6 -539 6 l-516 0 -10 -32 c-6 -18 -28 -76 -48 -128 -21 -52 -52 -135 -70 -185 l-33 -90 -286 -3 c-239 -2 -286 0 -286 12 0 7 20 60 44 117 24 57 87 205 139 329 52 124 129 311 170 415 236 597 379 962 443 1130 39 105 99 258 132 340 32 83 62 158 65 168 6 16 27 17 262 17 219 0 255 -2 255 -15z"/>
<path d="M6900 10260 c-389 -90 -629 -456 -574 -877 23 -182 96 -326 233 -464 72 -71 102 -94 181 -132 126 -62 201 -80 325 -80 161 1 290 43 416 135 275 200 385 536 289 886 -71 258 -275 465 -520 526 -105 27 -250 29 -350 6z"/>
<path d="M11272 9857 c-45 -127 -122 -340 -170 -472 l-88 -240 345 -5 c190 -3 348 -4 349 -3 4 1 -114 324 -165 453 -42 105 -91 237 -139 369 -24 69 -46 126 -47 128 -2 1 -40 -102 -85 -230z"/>
<path d="M9262 10060 c-5 -14 -37 -104 -70 -200 -99 -284 -242 -681 -253 -701 -9 -18 1 -19 336 -19 l345 0 -16 38 c-9 20 -19 48 -24 62 -4 14 -37 104 -73 200 -83 223 -200 542 -220 600 -15 43 -16 44 -25 20z"/>
<path d="M15275 10964 c-176 -28 -351 -156 -427 -314 -56 -117 -71 -186 -65 -315 3 -87 10 -124 30 -177 111 -289 419 -453 711 -378 170 43 289 137 361 284 72 145 89 261 60 421 -47 263 -281 467 -552 479 -48 2 -101 2 -118 0z m247 -238 c71 -34 150 -117 186 -193 24 -52 27 -69 27 -173 0 -110 -2 -118 -33 -182 -38 -77 -100 -138 -182 -177 -75 -36 -196 -36 -285 -1 -109 42 -213 178 -233 302 -30 190 85 388 257 443 73 23 193 14 263 -19z"/>
<path d="M18220 10883 c-86 -191 -413 -972 -441 -1050 l-18 -53 112 0 113 0 59 125 59 125 251 0 251 0 54 -121 c29 -66 62 -125 72 -130 17 -9 203 -11 220 -2 7 4 -13 56 -264 670 -103 255 -188 467 -188 472 0 5 -58 9 -129 10 l-130 1 -21 -47z m184 -338 c19 -49 55 -139 80 -200 25 -60 46 -111 46 -112 0 -2 -76 -3 -170 -3 -140 0 -170 3 -170 14 0 16 72 206 128 338 27 63 39 82 44 70 4 -9 23 -57 42 -107z"/>
<path d="M19093 10914 c-39 -19 -67 -83 -59 -130 14 -74 81 -103 184 -79 30 7 62 61 62 105 0 95 -96 149 -187 104z"/>
<path d="M19060 10185 l0 -405 105 0 105 0 0 405 0 405 -105 0 -105 0 0 -405z"/>
<path d="M16400 10565 c-30 -9 -74 -29 -98 -45 -48 -34 -50 -35 -49 -17 0 6 -1 24 -1 40 l-2 27 -95 0 -96 0 1 -374 c1 -206 4 -384 7 -395 5 -19 12 -21 94 -21 86 0 89 1 89 23 0 12 1 121 3 242 2 212 3 222 28 270 31 62 77 88 158 89 71 0 107 -18 146 -72 l30 -44 3 -254 3 -254 99 0 100 0 -1 103 c0 56 -4 183 -8 282 -8 208 -18 239 -95 317 -78 78 -207 112 -316 83z"/>
<path d="M17188 10551 c-108 -35 -183 -102 -235 -210 -36 -73 -45 -228 -18 -313 58 -181 224 -282 432 -264 85 8 121 19 185 58 53 33 114 114 98 133 -5 6 -31 23 -58 38 l-48 26 -64 -42 c-59 -39 -70 -42 -142 -46 -64 -2 -85 1 -123 19 -48 23 -88 73 -100 123 l-7 27 297 0 297 0 -4 94 c-3 84 -8 102 -41 169 -42 85 -90 132 -176 174 -73 36 -207 43 -293 14z m198 -166 c60 -17 134 -91 134 -132 0 -4 -90 -10 -200 -12 -195 -3 -200 -3 -200 17 0 11 19 41 43 67 32 36 54 50 92 60 65 18 72 18 131 0z"/>
<path d="M17284 9456 c-59 -59 -42 -145 34 -165 123 -33 212 81 128 165 -29 29 -41 34 -81 34 -40 0 -52 -5 -81 -34z"/>
<path d="M15196 9473 c-9 -10 -40 -79 -86 -193 -96 -243 -259 -632 -335 -800 -18 -41 -32 -76 -32 -76 1 -1 49 -4 106 -6 l103 -5 55 114 55 113 240 -2 239 -3 45 -107 46 -108 110 0 110 0 -6 26 c-8 31 -191 487 -282 702 -37 86 -84 198 -105 247 l-38 90 -53 7 c-74 9 -163 9 -172 1z m152 -384 c22 -63 54 -148 71 -188 17 -40 31 -78 31 -85 0 -10 -158 -12 -276 -3 l-30 2 71 180 c39 99 74 189 78 199 4 10 9 17 11 15 2 -2 22 -56 44 -120z"/>
<path d="M18337 9364 c-4 -4 -7 -52 -7 -106 l0 -98 -39 0 c-67 0 -71 -4 -71 -81 l0 -69 54 0 54 0 6 -217 c4 -120 11 -234 16 -253 18 -64 47 -100 104 -126 49 -22 65 -24 163 -22 l108 3 1 35 c1 19 0 49 -3 66 l-5 32 -74 4 c-60 3 -78 8 -96 26 -22 22 -23 30 -26 232 l-3 210 99 0 100 0 6 31 c3 17 6 51 6 75 l0 43 -102 3 -103 3 -5 105 -5 105 -85 3 c-47 1 -89 0 -93 -4z"/>
<path d="M20628 9363 c-15 -4 -18 -20 -20 -106 l-3 -102 -53 0 -52 0 0 -72 0 -72 57 -3 57 -3 -3 -172 c-3 -222 3 -272 43 -330 46 -68 115 -103 215 -110 44 -3 85 -3 93 -1 9 4 12 24 10 77 l-4 71 -43 0 c-54 0 -91 13 -103 37 -6 10 -13 109 -17 221 l-8 202 92 0 91 0 0 78 0 79 -32 -3 c-18 -2 -59 -1 -90 2 l-58 6 0 104 0 104 -77 -1 c-43 -1 -86 -3 -95 -6z"/>
<path d="M17799 9170 c-56 -10 -80 -21 -138 -68 -53 -43 -71 -83 -71 -160 0 -49 5 -66 28 -98 37 -51 113 -89 232 -114 52 -11 106 -29 119 -38 36 -26 47 -67 26 -98 -20 -31 -53 -44 -114 -44 -70 0 -106 16 -127 56 -18 33 -20 34 -79 34 -92 0 -105 -6 -105 -47 0 -68 57 -134 155 -180 53 -24 71 -27 160 -27 87 0 107 4 155 26 139 66 197 196 139 314 -34 72 -145 128 -295 149 -72 9 -114 37 -114 74 0 44 40 71 104 71 54 0 93 -18 139 -64 14 -14 37 -26 50 -26 52 0 117 13 117 24 0 70 -77 162 -161 193 -64 24 -156 33 -220 23z"/>
<path d="M16053 9152 c-110 -39 -163 -110 -165 -220 -2 -125 52 -171 234 -204 161 -28 188 -47 174 -123 -8 -39 -41 -55 -118 -55 -64 0 -114 22 -136 60 -17 30 -18 30 -87 28 l-70 -3 -3 -32 c-6 -59 58 -147 136 -187 44 -22 151 -38 212 -31 104 12 214 85 253 167 24 51 22 124 -5 178 -30 58 -103 103 -207 126 -153 33 -181 44 -193 69 -18 40 -3 73 41 86 65 19 124 4 182 -47 51 -45 64 -49 133 -37 l38 6 -5 44 c-7 64 -52 121 -122 158 -49 25 -70 30 -148 32 -70 3 -104 -1 -144 -15z"/>
<path d="M16750 9153 c-70 -25 -117 -59 -144 -105 -51 -89 -46 -166 15 -233 44 -47 102 -73 229 -99 103 -22 140 -46 140 -89 0 -54 -35 -79 -112 -80 -70 0 -120 19 -139 56 -18 34 -28 37 -113 37 l-78 0 7 -47 c17 -113 94 -178 239 -204 204 -35 386 77 386 239 0 126 -64 182 -265 232 -64 15 -125 36 -135 45 -31 28 -32 55 0 86 50 50 144 32 197 -37 24 -32 29 -34 88 -34 35 0 70 3 79 6 42 16 -3 129 -72 181 -80 61 -222 81 -322 46z"/>
<path d="M19064 9159 c-110 -14 -234 -102 -285 -201 -25 -48 -43 -168 -34 -233 20 -162 164 -308 331 -335 88 -15 244 20 268 59 13 21 26 11 26 -19 l0 -30 95 0 95 0 0 375 0 375 -85 0 -85 0 0 -40 0 -39 -36 24 c-79 54 -187 78 -290 64z m207 -185 c92 -64 120 -191 66 -307 -48 -105 -165 -147 -273 -98 -114 52 -169 230 -104 337 62 100 216 134 311 68z"/>
<path d="M20022 9151 c-30 -10 -67 -28 -82 -40 -39 -28 -50 -27 -50 9 l0 30 -95 0 -95 0 0 -375 0 -375 102 0 101 0 -5 163 c-8 222 2 334 31 376 50 70 145 89 229 47 82 -41 86 -59 90 -343 l3 -243 97 0 97 0 -3 253 c-2 178 -7 267 -17 303 -29 103 -107 173 -224 200 -75 18 -116 17 -179 -5z"/>
<path d="M17277 9143 c-4 -3 -7 -172 -7 -375 l0 -368 98 0 97 0 -5 372 c-3 205 -7 374 -8 376 -5 5 -169 1 -175 -5z"/>
</g>
</svg>