<svg xmlns="http://www.w3.org/2000/svg" xmlns:xlink="http://www.w3.org/1999/xlink" zoomAndPan="magnify" preserveAspectRatio="xMidYMid meet" version="1.2" viewBox="0.19 206.77 809.63 422.22"><defs><clipPath id="64061447e0"><path d="M 0 206.765625 L 425 206.765625 L 425 629 L 0 629 Z M 0 206.765625 "/></clipPath></defs><g id="98f1d69b1e"><g clip-rule="nonzero" clip-path="url(#64061447e0)"><path style=" stroke:none;fill-rule:nonzero;fill:#ffffff;fill-opacity:1;" d="M 165.707031 206.964844 C 148.578125 207.117188 133.523438 207.417969 132.257812 207.570312 C 130.992188 207.773438 127.242188 208.128906 123.898438 208.433594 C 94.554688 210.96875 72.003906 218.519531 52.847656 232.148438 C 41.292969 240.359375 33.234375 248.570312 24.417969 260.984375 C 9.519531 282.117188 3.285156 302.238281 0.953125 337.152344 C 0.246094 348.046875 -0.109375 459.488281 0.496094 486.144531 C 1.15625 515.28125 2.574219 525.570312 8.097656 541.585938 C 10.886719 549.589844 15.195312 558.511719 20.109375 566.46875 C 25.378906 574.929688 28.523438 579.085938 34.453125 585.570312 C 45.90625 598.039062 57.15625 606.550781 71.191406 613.34375 C 88.929688 621.957031 102.511719 625.304688 129.472656 627.835938 C 136.566406 628.496094 148.980469 628.699219 199.660156 628.902344 C 284.390625 629.253906 297.363281 628.75 324.070312 623.984375 C 350.320312 619.273438 377.585938 603.207031 393.902344 582.9375 C 403.027344 571.636719 409.867188 559.21875 414.933594 544.929688 C 419.75 531.398438 421.777344 521.109375 423.195312 503.121094 C 424.007812 493.035156 424.359375 393.808594 423.703125 361.476562 C 423.144531 332.945312 422.433594 322.253906 420.308594 310.039062 C 415.949219 285.15625 403.988281 261.796875 387.011719 244.820312 C 374.75 232.65625 363.195312 224.953125 347.433594 218.570312 C 330.40625 211.675781 313.429688 208.636719 284.796875 207.417969 C 269.644531 206.8125 208.019531 206.558594 165.707031 206.964844 Z M 116.296875 346.273438 C 127.089844 348.453125 136.515625 353.21875 145.839844 361.074219 C 156.785156 370.398438 165.148438 384.789062 168.085938 399.332031 C 168.746094 402.679688 168.949219 406.074219 168.898438 412.914062 C 168.898438 420.972656 168.695312 422.59375 167.582031 426.953125 C 162.867188 444.890625 150.199219 460.449219 133.273438 469.117188 C 123.796875 473.980469 116.296875 475.753906 105.398438 475.703125 C 96.683594 475.652344 92.222656 474.996094 85.988281 472.867188 C 69.367188 467.242188 55.027344 454.976562 47.222656 439.621094 C 42.609375 430.601562 40.632812 423.101562 40.179688 412.863281 C 39.265625 392.796875 48.539062 372.527344 64.402344 359.703125 C 80.113281 347.035156 97.644531 342.472656 116.296875 346.273438 Z M 229.050781 347.542969 C 229.050781 348.402344 229.964844 350.734375 240.199219 376.425781 C 244.355469 386.714844 249.980469 400.550781 252.769531 407.085938 C 256.773438 416.511719 265.285156 437.542969 268.175781 445.042969 C 268.578125 446.210938 268.628906 446.261719 269.289062 445.296875 C 270.203125 443.980469 273.546875 435.71875 293.308594 385.804688 C 296.707031 377.289062 300.910156 366.699219 302.683594 362.238281 C 304.460938 357.777344 306.535156 352.457031 307.296875 350.429688 L 308.714844 346.78125 L 334.460938 346.78125 L 334.964844 347.894531 C 335.21875 348.554688 337.601562 354.636719 340.339844 361.476562 C 343.023438 368.320312 346.875 378 348.953125 383.015625 C 350.980469 388.03125 354.425781 396.699219 356.65625 402.273438 C 358.886719 407.847656 365.121094 423.457031 370.542969 436.988281 C 375.964844 450.519531 381.386719 464.046875 382.550781 467.140625 C 383.769531 470.179688 385.035156 473.222656 385.441406 473.828125 L 386.152344 474.996094 L 357.871094 474.996094 L 354.324219 465.972656 C 352.398438 461.058594 350.574219 456.195312 350.21875 455.179688 C 349.867188 454.015625 349.207031 453.203125 348.546875 453 C 347.941406 452.847656 335.625 452.796875 321.132812 452.847656 L 294.832031 452.949219 L 292.347656 459.285156 C 290.980469 462.78125 289.15625 467.746094 288.242188 470.28125 L 286.671875 474.996094 L 252.515625 474.996094 L 251.703125 473.070312 C 250.082031 469.320312 245.117188 456.445312 244.660156 454.925781 C 244.40625 453.914062 243.796875 453.203125 243.140625 453 C 242.480469 452.847656 230.21875 452.695312 215.824219 452.695312 L 189.675781 452.695312 L 189.167969 454.320312 C 188.863281 455.230469 187.75 458.167969 186.734375 460.804688 C 185.671875 463.441406 184.101562 467.644531 183.1875 470.179688 L 181.515625 474.742188 L 167.023438 474.894531 C 154.910156 474.996094 152.527344 474.894531 152.527344 474.285156 C 152.527344 473.929688 153.542969 471.246094 154.757812 468.355469 C 155.976562 465.46875 159.167969 457.96875 161.804688 451.683594 C 164.4375 445.398438 168.339844 435.921875 170.417969 430.652344 C 182.378906 400.398438 189.625 381.902344 192.867188 373.386719 C 194.84375 368.066406 197.886719 360.3125 199.558594 356.15625 C 201.179688 351.949219 202.699219 348.148438 202.851562 347.644531 C 203.15625 346.832031 204.21875 346.78125 216.128906 346.78125 C 227.226562 346.78125 229.050781 346.882812 229.050781 347.542969 Z M 229.050781 347.542969 "/></g><path style=" stroke:none;fill-rule:nonzero;fill:#ffffff;fill-opacity:1;" d="M 96.277344 371.613281 C 76.5625 376.175781 64.402344 394.722656 67.1875 416.058594 C 68.355469 425.28125 72.054688 432.578125 78.996094 439.570312 C 82.644531 443.167969 84.164062 444.335938 88.167969 446.261719 C 94.554688 449.402344 98.355469 450.316406 104.640625 450.316406 C 112.796875 450.265625 119.335938 448.136719 125.722656 443.472656 C 139.65625 433.339844 145.230469 416.308594 140.367188 398.574219 C 136.769531 385.5 126.429688 375.007812 114.015625 371.917969 C 108.695312 370.550781 101.34375 370.449219 96.277344 371.613281 Z M 96.277344 371.613281 "/><path style=" stroke:none;fill-rule:nonzero;fill:#ffffff;fill-opacity:1;" d="M 317.835938 392.035156 C 315.558594 398.472656 311.65625 409.265625 309.222656 415.957031 L 304.761719 428.117188 L 322.246094 428.371094 C 331.875 428.523438 339.882812 428.574219 339.933594 428.523438 C 340.136719 428.472656 334.15625 412.105469 331.570312 405.566406 C 329.441406 400.246094 326.960938 393.554688 324.527344 386.867188 C 323.3125 383.371094 322.195312 380.480469 322.144531 380.378906 C 322.042969 380.328125 320.117188 385.550781 317.835938 392.035156 Z M 317.835938 392.035156 "/><path style=" stroke:none;fill-rule:nonzero;fill:#ffffff;fill-opacity:1;" d="M 215.976562 381.75 C 215.722656 382.457031 214.101562 387.019531 212.429688 391.882812 C 207.414062 406.277344 200.164062 426.394531 199.609375 427.410156 C 199.152344 428.320312 199.660156 428.371094 216.636719 428.371094 L 234.121094 428.371094 L 233.308594 426.445312 C 232.851562 425.433594 232.34375 424.011719 232.09375 423.304688 C 231.890625 422.59375 230.21875 418.035156 228.394531 413.167969 C 224.1875 401.867188 218.257812 385.703125 217.242188 382.761719 C 216.484375 380.582031 216.433594 380.53125 215.976562 381.75 Z M 215.976562 381.75 "/><path style=" stroke:none;fill-rule:nonzero;fill:#ffffff;fill-opacity:1;" d="M 520.699219 335.9375 C 511.777344 337.355469 502.910156 343.84375 499.058594 351.847656 C 496.222656 357.777344 495.460938 361.273438 495.765625 367.8125 C 495.917969 372.222656 496.273438 374.097656 497.285156 376.78125 C 502.910156 391.429688 518.519531 399.738281 533.316406 395.9375 C 541.933594 393.757812 547.960938 388.996094 551.613281 381.546875 C 555.261719 374.199219 556.121094 368.320312 554.652344 360.210938 C 552.269531 346.882812 540.410156 336.542969 526.679688 335.9375 C 524.246094 335.835938 521.558594 335.835938 520.699219 335.9375 Z M 533.214844 347.996094 C 536.8125 349.722656 540.816406 353.925781 542.640625 357.777344 C 543.859375 360.414062 544.011719 361.273438 544.011719 366.546875 C 544.011719 372.121094 543.910156 372.527344 542.335938 375.769531 C 540.410156 379.671875 537.269531 382.761719 533.113281 384.738281 C 529.3125 386.5625 523.179688 386.5625 518.671875 384.789062 C 513.148438 382.660156 507.878906 375.769531 506.863281 369.484375 C 505.34375 359.855469 511.171875 349.820312 519.886719 347.035156 C 523.585938 345.871094 529.667969 346.324219 533.214844 347.996094 Z M 533.214844 347.996094 "/><path style=" stroke:none;fill-rule:nonzero;fill:#ffffff;fill-opacity:1;" d="M 669.941406 340.042969 C 665.585938 349.722656 649.011719 389.300781 647.59375 393.253906 L 646.683594 395.9375 L 658.085938 395.9375 L 661.074219 389.605469 L 664.0625 383.269531 L 689.503906 383.269531 L 692.242188 389.402344 C 693.710938 392.746094 695.382812 395.734375 695.890625 395.988281 C 696.75 396.445312 706.175781 396.546875 707.039062 396.089844 C 707.394531 395.886719 706.378906 393.253906 693.660156 362.136719 C 688.441406 349.214844 684.132812 338.46875 684.132812 338.21875 C 684.132812 337.964844 681.191406 337.761719 677.59375 337.710938 L 671.007812 337.660156 Z M 679.265625 357.171875 C 680.230469 359.652344 682.054688 364.214844 683.320312 367.304688 C 684.589844 370.347656 685.652344 372.929688 685.652344 372.980469 C 685.652344 373.082031 681.800781 373.132812 677.039062 373.132812 C 669.941406 373.132812 668.421875 372.980469 668.421875 372.425781 C 668.421875 371.613281 672.070312 361.984375 674.910156 355.296875 C 676.277344 352.101562 676.886719 351.140625 677.136719 351.746094 C 677.339844 352.203125 678.304688 354.636719 679.265625 357.171875 Z M 679.265625 357.171875 "/><path style=" stroke:none;fill-rule:nonzero;fill:#ffffff;fill-opacity:1;" d="M 714.183594 338.46875 C 712.207031 339.433594 710.789062 342.675781 711.195312 345.058594 C 711.902344 348.808594 715.296875 350.277344 720.519531 349.0625 C 722.039062 348.707031 723.660156 345.96875 723.660156 343.742188 C 723.660156 338.925781 718.796875 336.191406 714.183594 338.46875 Z M 714.183594 338.46875 "/><path style=" stroke:none;fill-rule:nonzero;fill:#ffffff;fill-opacity:1;" d="M 712.511719 375.414062 L 712.511719 395.9375 L 723.152344 395.9375 L 723.152344 354.890625 L 712.511719 354.890625 Z M 712.511719 375.414062 "/><path style=" stroke:none;fill-rule:nonzero;fill:#ffffff;fill-opacity:1;" d="M 577.710938 356.15625 C 576.191406 356.613281 573.960938 357.625 572.742188 358.4375 C 570.3125 360.160156 570.210938 360.210938 570.261719 359.296875 C 570.261719 358.996094 570.210938 358.082031 570.210938 357.273438 L 570.109375 355.902344 L 560.429688 355.902344 L 560.480469 374.855469 C 560.53125 385.296875 560.683594 394.316406 560.835938 394.875 C 561.089844 395.835938 561.441406 395.9375 565.597656 395.9375 C 569.957031 395.9375 570.109375 395.886719 570.109375 394.773438 C 570.109375 394.164062 570.160156 388.640625 570.261719 382.507812 C 570.363281 371.765625 570.414062 371.257812 571.679688 368.824219 C 573.25 365.683594 575.582031 364.367188 579.6875 364.316406 C 583.285156 364.316406 585.109375 365.226562 587.085938 367.964844 L 588.605469 370.195312 L 588.910156 395.9375 L 598.996094 395.9375 L 598.945312 390.71875 C 598.945312 387.878906 598.742188 381.445312 598.539062 376.425781 C 598.132812 365.886719 597.625 364.316406 593.722656 360.363281 C 589.769531 356.410156 583.234375 354.6875 577.710938 356.15625 Z M 577.710938 356.15625 "/><path style=" stroke:none;fill-rule:nonzero;fill:#ffffff;fill-opacity:1;" d="M 617.644531 356.867188 C 612.171875 358.640625 608.371094 362.035156 605.734375 367.507812 C 603.910156 371.207031 603.453125 379.0625 604.824219 383.371094 C 607.761719 392.542969 616.175781 397.660156 626.714844 396.75 C 631.023438 396.34375 632.847656 395.785156 636.089844 393.808594 C 638.777344 392.136719 641.867188 388.03125 641.054688 387.070312 C 640.804688 386.765625 639.484375 385.902344 638.117188 385.144531 L 635.683594 383.828125 L 632.441406 385.953125 C 629.453125 387.929688 628.894531 388.082031 625.246094 388.285156 C 622 388.386719 620.9375 388.234375 619.011719 387.324219 C 616.578125 386.15625 614.550781 383.625 613.945312 381.089844 L 613.589844 379.722656 L 643.691406 379.722656 L 643.488281 374.957031 C 643.335938 370.699219 643.082031 369.789062 641.410156 366.394531 C 639.28125 362.085938 636.851562 359.703125 632.492188 357.574219 C 628.792969 355.75 622 355.398438 617.644531 356.867188 Z M 627.679688 365.277344 C 630.71875 366.140625 634.46875 369.890625 634.46875 371.96875 C 634.46875 372.171875 629.90625 372.476562 624.332031 372.578125 C 614.449219 372.726562 614.199219 372.726562 614.199219 371.714844 C 614.199219 371.15625 615.160156 369.636719 616.375 368.320312 C 618 366.496094 619.113281 365.785156 621.039062 365.277344 C 624.332031 364.367188 624.6875 364.367188 627.679688 365.277344 Z M 627.679688 365.277344 "/><path style=" stroke:none;fill-rule:nonzero;fill:#ffffff;fill-opacity:1;" d="M 622.507812 412.359375 C 619.519531 415.347656 620.378906 419.707031 624.230469 420.71875 C 630.464844 422.390625 634.976562 416.613281 630.71875 412.359375 C 629.25 410.886719 628.640625 410.632812 626.613281 410.632812 C 624.585938 410.632812 623.976562 410.886719 622.507812 412.359375 Z M 622.507812 412.359375 "/><path style=" stroke:none;fill-rule:nonzero;fill:#ffffff;fill-opacity:1;" d="M 516.695312 411.496094 C 516.238281 412.003906 514.667969 415.5 512.335938 421.277344 C 507.472656 433.589844 499.210938 453.304688 495.359375 461.820312 C 494.449219 463.894531 493.738281 465.671875 493.738281 465.671875 C 493.789062 465.722656 496.222656 465.871094 499.109375 465.972656 L 504.328125 466.226562 L 507.117188 460.449219 L 509.902344 454.722656 L 522.066406 454.824219 L 534.179688 454.976562 L 536.457031 460.398438 L 538.789062 465.871094 L 549.9375 465.871094 L 549.636719 464.554688 C 549.230469 462.984375 539.957031 439.875 535.34375 428.980469 C 533.46875 424.621094 531.085938 418.945312 530.023438 416.460938 L 528.097656 411.902344 L 525.410156 411.546875 C 521.660156 411.089844 517.152344 411.089844 516.695312 411.496094 Z M 524.398438 430.957031 C 525.511719 434.148438 527.132812 438.457031 527.996094 440.484375 C 528.855469 442.511719 529.566406 444.4375 529.566406 444.792969 C 529.566406 445.296875 521.558594 445.398438 515.578125 444.941406 L 514.058594 444.839844 L 517.65625 435.71875 C 519.632812 430.703125 521.40625 426.140625 521.609375 425.636719 C 521.8125 425.128906 522.066406 424.773438 522.167969 424.875 C 522.269531 424.976562 523.28125 427.710938 524.398438 430.957031 Z M 524.398438 430.957031 "/><path style=" stroke:none;fill-rule:nonzero;fill:#ffffff;fill-opacity:1;" d="M 675.871094 417.019531 C 675.667969 417.222656 675.515625 419.65625 675.515625 422.390625 L 675.515625 427.359375 L 673.539062 427.359375 C 670.144531 427.359375 669.941406 427.5625 669.941406 431.464844 L 669.941406 434.960938 L 675.414062 434.960938 L 675.71875 445.957031 C 675.921875 452.039062 676.277344 457.816406 676.53125 458.777344 C 677.441406 462.019531 678.914062 463.84375 681.800781 465.164062 C 684.285156 466.277344 685.09375 466.378906 690.0625 466.277344 L 695.535156 466.125 L 695.585938 464.351562 C 695.636719 463.390625 695.585938 461.871094 695.433594 461.007812 L 695.179688 459.386719 L 691.429688 459.183594 C 688.390625 459.03125 687.476562 458.777344 686.566406 457.867188 C 685.449219 456.75 685.398438 456.34375 685.246094 446.109375 L 685.09375 435.464844 L 695.179688 435.464844 L 695.484375 433.894531 C 695.636719 433.035156 695.789062 431.3125 695.789062 430.09375 L 695.789062 427.914062 L 690.617188 427.761719 L 685.398438 427.613281 L 685.144531 422.289062 L 684.890625 416.96875 L 680.585938 416.816406 C 678.203125 416.765625 676.074219 416.816406 675.871094 417.019531 Z M 675.871094 417.019531 "/><path style=" stroke:none;fill-rule:nonzero;fill:#ffffff;fill-opacity:1;" d="M 791.972656 417.070312 C 791.210938 417.273438 791.0625 418.085938 790.960938 422.441406 L 790.808594 427.613281 L 785.484375 427.613281 L 785.484375 434.910156 L 788.375 435.0625 L 791.261719 435.214844 L 791.113281 443.929688 C 790.960938 455.179688 791.261719 457.714844 793.289062 460.652344 C 795.621094 464.097656 799.117188 465.871094 804.1875 466.226562 C 806.414062 466.378906 808.492188 466.378906 808.898438 466.277344 C 809.355469 466.074219 809.507812 465.0625 809.40625 462.375 L 809.203125 458.777344 L 807.023438 458.777344 C 804.289062 458.777344 802.414062 458.121094 801.804688 456.902344 C 801.5 456.394531 801.144531 451.378906 800.941406 445.703125 L 800.539062 435.464844 L 809.8125 435.464844 L 809.8125 427.511719 L 808.191406 427.664062 C 807.277344 427.761719 805.199219 427.710938 803.628906 427.5625 L 800.691406 427.257812 L 800.691406 416.714844 L 796.789062 416.765625 C 794.609375 416.816406 792.429688 416.917969 791.972656 417.070312 Z M 791.972656 417.070312 "/><path style=" stroke:none;fill-rule:nonzero;fill:#ffffff;fill-opacity:1;" d="M 648.609375 426.851562 C 645.769531 427.359375 644.554688 427.914062 641.613281 430.296875 C 638.929688 432.476562 638.015625 434.503906 638.015625 438.40625 C 638.015625 440.890625 638.269531 441.75 639.433594 443.371094 C 641.308594 445.957031 645.160156 447.882812 651.191406 449.148438 C 653.828125 449.707031 656.5625 450.617188 657.222656 451.074219 C 659.046875 452.394531 659.605469 454.46875 658.539062 456.042969 C 657.527344 457.613281 655.855469 458.269531 652.761719 458.269531 C 649.214844 458.269531 647.390625 457.460938 646.328125 455.433594 C 645.414062 453.761719 645.3125 453.710938 642.324219 453.710938 C 637.660156 453.710938 637.003906 454.015625 637.003906 456.09375 C 637.003906 459.539062 639.890625 462.882812 644.855469 465.214844 C 647.542969 466.429688 648.457031 466.582031 652.964844 466.582031 C 657.375 466.582031 658.386719 466.378906 660.820312 465.265625 C 667.863281 461.921875 670.804688 455.332031 667.863281 449.351562 C 666.140625 445.703125 660.515625 442.867188 652.914062 441.800781 C 649.265625 441.34375 647.136719 439.925781 647.136719 438.050781 C 647.136719 435.820312 649.164062 434.453125 652.410156 434.453125 C 655.144531 434.453125 657.121094 435.363281 659.453125 437.695312 C 660.160156 438.40625 661.328125 439.015625 661.984375 439.015625 C 664.621094 439.015625 667.914062 438.355469 667.914062 437.796875 C 667.914062 434.25 664.011719 429.589844 659.757812 428.015625 C 656.511719 426.800781 651.851562 426.34375 648.609375 426.851562 Z M 648.609375 426.851562 "/><path style=" stroke:none;fill-rule:nonzero;fill:#ffffff;fill-opacity:1;" d="M 560.125 427.761719 C 554.550781 429.738281 551.863281 433.339844 551.761719 438.914062 C 551.660156 445.246094 554.398438 447.578125 563.621094 449.25 C 571.78125 450.667969 573.148438 451.632812 572.441406 455.484375 C 572.035156 457.460938 570.363281 458.269531 566.460938 458.269531 C 563.214844 458.269531 560.683594 457.15625 559.566406 455.230469 C 558.707031 453.710938 558.65625 453.710938 555.160156 453.8125 L 551.613281 453.964844 L 551.460938 455.585938 C 551.15625 458.574219 554.398438 463.035156 558.351562 465.0625 C 560.582031 466.175781 566.003906 466.988281 569.09375 466.632812 C 574.367188 466.023438 579.941406 462.324219 581.917969 458.167969 C 583.132812 455.585938 583.03125 451.886719 581.664062 449.148438 C 580.144531 446.210938 576.441406 443.929688 571.171875 442.765625 C 563.417969 441.089844 562 440.535156 561.390625 439.265625 C 560.480469 437.238281 561.238281 435.566406 563.46875 434.910156 C 566.765625 433.945312 569.753906 434.707031 572.691406 437.289062 C 575.277344 439.570312 575.9375 439.773438 579.433594 439.164062 L 581.359375 438.863281 L 581.105469 436.632812 C 580.75 433.390625 578.46875 430.5 574.921875 428.625 C 572.441406 427.359375 571.375 427.105469 567.421875 427.003906 C 563.875 426.851562 562.152344 427.054688 560.125 427.761719 Z M 560.125 427.761719 "/><path style=" stroke:none;fill-rule:nonzero;fill:#ffffff;fill-opacity:1;" d="M 595.445312 427.710938 C 591.898438 428.980469 589.519531 430.703125 588.148438 433.035156 C 585.566406 437.542969 585.820312 441.445312 588.910156 444.839844 C 591.140625 447.222656 594.078125 448.542969 600.515625 449.859375 C 605.734375 450.972656 607.609375 452.191406 607.609375 454.367188 C 607.609375 457.105469 605.835938 458.371094 601.933594 458.421875 C 598.386719 458.421875 595.851562 457.460938 594.890625 455.585938 C 593.976562 453.863281 593.472656 453.710938 589.164062 453.710938 L 585.210938 453.710938 L 585.566406 456.09375 C 586.425781 461.820312 590.328125 465.113281 597.675781 466.429688 C 608.015625 468.203125 617.238281 462.527344 617.238281 454.320312 C 617.238281 447.933594 613.996094 445.09375 603.808594 442.5625 C 600.566406 441.800781 597.472656 440.738281 596.96875 440.28125 C 595.394531 438.863281 595.347656 437.492188 596.96875 435.921875 C 599.5 433.390625 604.265625 434.300781 606.949219 437.796875 C 608.167969 439.417969 608.421875 439.519531 611.410156 439.519531 C 613.183594 439.519531 614.957031 439.367188 615.414062 439.214844 C 617.542969 438.40625 615.261719 432.679688 611.765625 430.042969 C 607.710938 426.953125 600.515625 425.9375 595.445312 427.710938 Z M 595.445312 427.710938 "/><path style=" stroke:none;fill-rule:nonzero;fill:#ffffff;fill-opacity:1;" d="M 712.714844 427.410156 C 707.140625 428.117188 700.855469 432.578125 698.269531 437.59375 C 697.003906 440.027344 696.09375 446.109375 696.546875 449.402344 C 697.5625 457.613281 704.859375 465.011719 713.320312 466.378906 C 717.78125 467.140625 725.6875 465.367188 726.902344 463.390625 C 727.5625 462.324219 728.222656 462.832031 728.222656 464.351562 L 728.222656 465.871094 L 737.851562 465.871094 L 737.851562 427.863281 L 729.234375 427.863281 L 729.234375 431.867188 L 727.410156 430.652344 C 723.40625 427.914062 717.933594 426.699219 712.714844 427.410156 Z M 723.203125 436.785156 C 727.867188 440.027344 729.285156 446.464844 726.550781 452.34375 C 724.117188 457.664062 718.1875 459.792969 712.714844 457.308594 C 706.9375 454.671875 704.148438 445.652344 707.445312 440.230469 C 710.585938 435.164062 718.390625 433.4375 723.203125 436.785156 Z M 723.203125 436.785156 "/><path style=" stroke:none;fill-rule:nonzero;fill:#ffffff;fill-opacity:1;" d="M 761.261719 427.8125 C 759.742188 428.320312 757.867188 429.234375 757.105469 429.839844 C 755.128906 431.261719 754.574219 431.210938 754.574219 429.386719 L 754.574219 427.863281 L 744.945312 427.863281 L 744.945312 465.871094 L 755.230469 465.871094 L 754.980469 457.613281 C 754.574219 446.363281 755.078125 440.6875 756.550781 438.558594 C 759.082031 435.011719 763.898438 434.046875 768.15625 436.175781 C 772.308594 438.253906 772.511719 439.164062 772.714844 453.558594 L 772.867188 465.871094 L 782.699219 465.871094 L 782.546875 453.050781 C 782.445312 444.03125 782.191406 439.519531 781.683594 437.695312 C 780.214844 432.476562 776.261719 428.929688 770.332031 427.5625 C 766.53125 426.648438 764.457031 426.699219 761.261719 427.8125 Z M 761.261719 427.8125 "/><path style=" stroke:none;fill-rule:nonzero;fill:#ffffff;fill-opacity:1;" d="M 622.152344 428.21875 C 621.953125 428.371094 621.800781 436.9375 621.800781 447.222656 L 621.800781 465.871094 L 631.679688 465.871094 L 631.429688 447.019531 C 631.277344 436.632812 631.074219 428.066406 631.023438 427.964844 C 630.769531 427.710938 622.457031 427.914062 622.152344 428.21875 Z M 622.152344 428.21875 "/></g></svg>